<?xml version="1.0" standalone="no"?>
<!DOCTYPE svg PUBLIC "-//W3C//DTD SVG 20010904//EN"
 "http://www.w3.org/TR/2001/REC-SVG-20010904/DTD/svg10.dtd">
<svg version="1.0" xmlns="http://www.w3.org/2000/svg"
 width="512.000000pt" height="512.000000pt" viewBox="0 0 512.000000 512.000000"
 preserveAspectRatio="xMidYMid meet">

<g transform="translate(0.000000,512.000000) scale(0.100000,-0.100000)"
fill="#000000" stroke="none">
<path d="M2695 3222 c-347 -90 -576 -381 -575 -729 1 -200 75 -378 220 -524
88 -88 184 -146 310 -186 76 -25 100 -28 225 -27 125 0 148 3 218 27 271 93
442 278 513 557 12 49 15 94 12 185 -8 193 -66 335 -197 476 -84 92 -188 159
-309 199 -85 29 -113 33 -222 36 -97 3 -141 0 -195 -14z m298 -177 c137 -29
293 -140 362 -259 135 -232 103 -488 -85 -677 -84 -84 -179 -139 -277 -159
-81 -17 -243 -8 -316 19 -83 29 -190 104 -243 169 -192 235 -177 538 36 753
142 142 325 196 523 154z"/>
<path d="M3136 2732 c-2 -4 -1 -14 5 -22 7 -12 9 -10 9 8 0 23 -5 28 -14 14z"/>
<path d="M2650 2700 c-6 -11 -9 -20 -8 -20 2 0 11 9 21 20 9 11 13 20 7 20 -5
0 -14 -9 -20 -20z"/>
<path d="M3078 2713 c16 -6 15 -28 -2 -42 -8 -6 -16 -24 -18 -40 -3 -23 -1
-27 14 -23 16 4 58 51 58 66 0 3 -8 2 -17 -1 -13 -5 -15 -2 -9 12 7 18 -8 35
-29 34 -5 0 -4 -3 3 -6z"/>
<path d="M2980 2705 c0 -5 5 -17 10 -25 5 -8 10 -10 10 -5 0 6 -5 17 -10 25
-5 8 -10 11 -10 5z"/>
<path d="M2682 2679 c-7 -12 -11 -24 -8 -27 3 -3 6 0 6 7 0 7 4 10 8 7 4 -2 9
4 9 15 2 24 1 24 -15 -2z"/>
<path d="M2546 2656 c-18 -28 -20 -36 -8 -36 8 0 34 52 28 57 -2 2 -11 -8 -20
-21z"/>
<path d="M2710 2580 c0 -5 9 -15 20 -22 11 -7 20 -19 20 -27 0 -11 3 -11 15
-1 16 13 21 35 6 26 -4 -3 -16 3 -26 14 -20 22 -35 26 -35 10z"/>
<path d="M2531 2546 c-19 -23 5 -28 30 -6 24 19 24 19 3 20 -12 0 -27 -6 -33
-14z"/>
<path d="M2834 2544 c-15 -8 -30 -17 -32 -19 -2 -1 38 -37 89 -79 51 -42 95
-74 97 -72 2 3 1 22 -3 44 -7 44 -53 105 -94 127 -24 12 -31 12 -57 -1z m131
-132 c-3 -3 -11 0 -18 7 -9 10 -8 11 6 5 10 -3 15 -9 12 -12z"/>
<path d="M2630 2504 c0 -8 5 -12 10 -9 6 4 8 11 5 16 -9 14 -15 11 -15 -7z"/>
<path d="M2751 2451 c-26 -61 -28 -89 -6 -71 8 7 45 15 82 18 l67 5 -54 49
c-29 26 -57 48 -61 48 -3 0 -16 -22 -28 -49z"/>
<path d="M3096 2189 c-15 -9 -16 -13 -5 -20 11 -7 11 -11 -4 -21 -16 -12 -13
-13 23 -14 22 -1 47 -7 55 -14 12 -10 18 -10 30 0 13 10 15 9 15 -8 0 -14 -17
-31 -50 -53 -52 -34 -66 -48 -27 -28 95 49 117 106 51 134 -45 18 -45 18 -38
0 4 -8 1 -15 -6 -15 -8 0 -10 9 -6 25 7 27 -6 32 -38 14z"/>
<path d="M2935 2169 c-16 -10 -40 -19 -52 -19 -22 0 -23 -3 -23 -95 l0 -95 43
2 42 1 -37 4 -38 4 0 50 0 49 40 0 c27 0 40 4 40 13 0 13 19 17 88 18 32 1 25
29 -13 49 -17 8 -34 21 -38 28 -10 15 -16 15 -52 -9z"/>
<path d="M3055 2160 c-3 -5 -1 -10 4 -10 6 0 11 5 11 10 0 6 -2 10 -4 10 -3 0
-8 -4 -11 -10z"/>
<path d="M2958 1973 c6 -2 18 -2 25 0 6 3 1 5 -13 5 -14 0 -19 -2 -12 -5z"/>
<path d="M2020 2551 c0 -17 5 -31 10 -31 6 0 10 11 10 24 0 14 -4 28 -10 31
-6 4 -10 -7 -10 -24z"/>
<path d="M3707 2508 c-7 -25 0 -41 14 -33 12 8 12 42 0 49 -5 3 -11 -4 -14
-16z"/>
<path d="M2045 2489 c-4 -6 -5 -13 -2 -16 7 -7 27 6 27 18 0 12 -17 12 -25 -2z"/>
<path d="M1990 2451 c0 -5 7 -14 15 -21 12 -10 15 -10 15 3 0 8 -7 17 -15 21
-8 3 -15 2 -15 -3z"/>
<path d="M3670 2440 c11 -20 30 -28 30 -12 0 11 -22 32 -32 32 -5 0 -4 -9 2
-20z"/>
<path d="M3730 2395 c-19 -20 -20 -25 -7 -25 9 0 21 9 27 21 17 31 7 33 -20 4z"/>
<path d="M2062 2398 c-16 -16 -15 -28 3 -28 8 0 15 9 15 20 0 23 -2 24 -18 8z"/>
<path d="M1990 2357 c0 -19 26 -40 40 -32 13 8 5 22 -21 35 -15 8 -19 7 -19
-3z"/>
<path d="M3650 2350 c0 -20 25 -38 36 -27 8 7 -15 47 -26 47 -6 0 -10 -9 -10
-20z"/>
<path d="M2080 2309 c-14 -25 -9 -51 7 -41 16 10 28 62 14 62 -5 0 -15 -9 -21
-21z"/>
<path d="M3722 2304 c-27 -19 -28 -34 -3 -34 11 0 23 9 26 21 9 28 3 31 -23
13z"/>
<path d="M3630 2272 c0 -10 6 -26 13 -37 20 -26 33 0 16 31 -15 28 -29 31 -29
6z"/>
<path d="M2000 2241 c0 -12 35 -41 48 -41 16 0 15 15 0 27 -20 15 -48 23 -48
14z"/>
<path d="M2106 2218 c-11 -42 -7 -55 9 -34 16 22 20 56 6 56 -5 0 -11 -10 -15
-22z"/>
<path d="M3605 2187 c-4 -10 -2 -30 6 -45 12 -25 13 -25 16 -7 2 12 0 32 -6
45 -8 22 -10 23 -16 7z"/>
<path d="M3715 2192 c-37 -8 -62 -42 -31 -42 16 0 64 36 56 42 -3 3 -14 2 -25
0z"/>
<path d="M2031 2124 c20 -24 60 -37 73 -24 15 16 -20 40 -57 40 -26 0 -28 -2
-16 -16z"/>
<path d="M2150 2117 c-14 -29 -7 -48 11 -30 6 6 9 21 7 34 l-4 24 -14 -28z"/>
<path d="M3562 2071 c2 -19 9 -36 16 -39 17 -5 15 29 -4 53 -15 19 -15 18 -12
-14z"/>
<path d="M3648 2079 c-21 -12 -24 -39 -5 -39 13 0 77 37 77 45 0 9 -54 5 -72
-6z"/>
<path d="M2192 2036 c-10 -23 -13 -24 -36 -12 -14 7 -40 11 -57 8 -30 -4 -31
-6 -14 -18 10 -8 36 -14 56 -14 21 0 44 -3 53 -6 11 -4 17 2 22 21 9 36 -9 53
-24 21z"/>
<path d="M3690 2040 c-9 -6 -10 -10 -3 -10 6 0 15 5 18 10 8 12 4 12 -15 0z"/>
<path d="M3507 2007 c-9 -23 4 -57 20 -57 12 0 14 7 8 28 -8 35 -21 47 -28 29z"/>
<path d="M2246 1966 c-7 -38 -1 -60 15 -51 11 8 12 55 0 73 -6 10 -10 3 -15
-22z"/>
<path d="M3415 1958 l-40 -43 43 40 c23 21 42 40 42 42 0 8 -9 0 -45 -39z"/>
<path d="M3567 1974 c-20 -20 39 -33 78 -18 13 5 14 8 3 15 -15 10 -72 12 -81
3z"/>
<path d="M2140 1951 l-25 -7 22 -12 c24 -13 66 -16 76 -5 10 9 -13 33 -32 32
-9 -1 -27 -4 -41 -8z"/>
<path d="M3451 1932 c-13 -24 -7 -62 10 -62 16 0 21 28 12 57 l-10 28 -12 -23z"/>
<path d="M2320 1892 c0 -31 4 -42 13 -40 18 7 20 40 3 63 -14 19 -15 17 -16
-23z"/>
<path d="M3516 1901 c-11 -18 3 -31 32 -31 29 0 60 15 50 25 -12 12 -76 17
-82 6z"/>
<path d="M3309 1869 l-24 -20 28 17 c15 9 27 18 27 20 0 8 -8 4 -31 -17z"/>
<path d="M3383 1873 c-16 -26 -17 -59 -3 -68 14 -9 22 17 18 57 -3 32 -3 32
-15 11z"/>
<path d="M2205 1866 l-30 -13 26 -8 c38 -10 74 -3 74 15 0 20 -33 23 -70 6z"/>
<path d="M2400 1827 c0 -13 6 -32 14 -43 14 -18 15 -18 22 -1 8 21 -10 67 -26
67 -5 0 -10 -10 -10 -23z"/>
<path d="M3234 1824 c-18 -14 -18 -15 4 -4 12 6 22 13 22 15 0 8 -5 6 -26 -11z"/>
<path d="M3440 1816 c0 -19 31 -29 64 -20 32 8 33 20 4 28 -39 10 -68 7 -68
-8z"/>
<path d="M2293 1807 c-18 -6 -33 -13 -33 -17 0 -14 50 -21 70 -10 42 23 14 42
-37 27z"/>
<path d="M3307 1802 c-20 -21 -23 -66 -5 -60 12 4 33 66 25 74 -2 2 -11 -4
-20 -14z"/>
<path d="M2480 1767 c0 -23 17 -47 32 -47 12 0 9 45 -4 58 -18 18 -28 14 -28
-11z"/>
<path d="M3207 1742 c-21 -23 -22 -52 -2 -52 8 0 15 1 15 3 0 1 4 17 9 35 11
36 2 41 -22 14z"/>
<path d="M3360 1746 c0 -17 37 -27 68 -19 28 7 28 19 0 27 -39 10 -68 7 -68
-8z"/>
<path d="M2383 1726 c-13 -7 -20 -16 -16 -19 18 -19 100 4 88 24 -8 12 -45 10
-72 -5z"/>
<path d="M2794 1675 c0 -14 6 -25 12 -25 7 0 9 10 6 25 -6 32 -20 32 -18 0z"/>
<path d="M2830 1690 c0 -7 7 -10 15 -6 13 5 14 2 4 -15 -9 -17 -8 -20 3 -17
19 7 16 42 -4 46 -10 2 -18 -2 -18 -8z"/>
<path d="M2899 1691 c9 -6 10 -11 2 -15 -15 -10 -14 -26 2 -26 6 0 13 11 13
25 1 17 -3 25 -15 25 -13 0 -13 -2 -2 -9z"/>
<path d="M2943 1675 c0 -14 3 -25 8 -25 5 0 9 11 9 25 0 14 -4 25 -9 25 -5 0
-8 -11 -8 -25z"/>
<path d="M3255 1691 c-7 -12 33 -41 57 -41 28 0 30 17 3 34 -27 18 -51 21 -60
7z"/>
<path d="M2498 1676 c-25 -18 -22 -26 8 -26 32 0 66 18 59 31 -9 13 -47 11
-67 -5z"/>
<path d="M3170 1645 c0 -19 31 -35 67 -35 l28 0 -30 25 c-34 27 -65 32 -65 10z"/>
<path d="M2775 1620 c3 -5 18 -10 32 -10 32 0 28 5 -10 14 -19 4 -26 3 -22 -4z"/>
</g>
</svg>
